<svg width="913" height="966" viewBox="0 0 913 966" fill="none" xmlns="http://www.w3.org/2000/svg">
<path d="M877.181 788.334C854.279 734.108 821.043 684.853 779.326 643.312C737.735 601.652 688.467 568.436 634.242 545.499C633.757 545.256 633.271 545.135 632.786 544.892C708.423 490.281 757.594 401.327 757.594 300.965C757.594 134.706 622.83 0 456.5 0C290.17 0 155.406 134.706 155.406 300.965C155.406 401.327 204.577 490.281 280.214 545.013C279.729 545.256 279.243 545.377 278.758 545.62C224.366 568.557 175.56 601.444 133.674 643.434C91.9956 685.007 58.7654 734.254 35.8186 788.455C13.2757 841.519 1.1178 898.41 0.00303595 956.049C-0.0293687 957.344 0.197912 958.633 0.671492 959.839C1.14507 961.045 1.85537 962.144 2.76052 963.071C3.66568 963.999 4.74738 964.735 5.94189 965.238C7.1364 965.742 8.41955 966 9.71574 966H82.561C87.903 966 92.1523 961.753 92.2737 956.534C94.7019 862.847 132.339 775.106 198.871 708.602C267.709 639.793 359.13 601.93 456.5 601.93C553.87 601.93 645.291 639.793 714.129 708.602C780.661 775.106 818.298 862.847 820.726 956.534C820.848 961.874 825.097 966 830.439 966H903.284C904.58 966 905.864 965.742 907.058 965.238C908.253 964.735 909.334 963.999 910.239 963.071C911.145 962.144 911.855 961.045 912.328 959.839C912.802 958.633 913.029 957.344 912.997 956.049C911.783 898.04 899.763 841.609 877.181 788.334V788.334ZM456.5 509.698C400.773 509.698 348.325 487.976 308.867 448.535C269.409 409.094 247.677 356.668 247.677 300.965C247.677 245.262 269.409 192.836 308.867 153.395C348.325 113.954 400.773 92.2312 456.5 92.2312C512.227 92.2312 564.675 113.954 604.133 153.395C643.591 192.836 665.323 245.262 665.323 300.965C665.323 356.668 643.591 409.094 604.133 448.535C564.675 487.976 512.227 509.698 456.5 509.698Z" fill="#333333"/>
</svg>
